<svg width="30" height="30" viewBox="0 0 30 30" fill="none" xmlns="http://www.w3.org/2000/svg">
<g clip-path="url(#clip0)">
<path d="M30 14.4075C30 13.922 29.6064 13.5285 29.121 13.5285H25.5182C25.4832 12.5832 25.3084 11.556 24.9666 10.5527C24.4528 9.06359 23.5951 7.70925 22.4321 6.58537C20.9486 5.15164 19.0872 4.20259 17.0551 3.82027L17.3837 3.47673C17.3975 3.46232 17.4107 3.4475 17.4234 3.4322C18.2695 2.41783 17.9911 1.22685 17.2786 0.574587C16.6487 -0.00209298 15.7848 -0.119163 15.0558 0.213825C14.769 0.0778875 14.4622 0.0123797 14.1461 0.0221648C13.6517 0.0371648 13.1766 0.240251 12.808 0.594098C12.0001 1.3697 11.9526 2.59666 12.6975 3.44797C12.7061 3.45769 12.7148 3.46724 12.7237 3.47662L13.0365 3.80351C10.9679 4.17406 9.07178 5.12955 7.56551 6.58531C6.40266 7.70914 5.54502 9.0633 5.03115 10.5522C4.70186 11.4785 4.47516 12.7409 4.47943 13.5284H0.879023C0.393574 13.5284 0 13.922 0 14.4075V22.7786C0 24.5603 1.45043 26.0098 3.23332 26.0098C4.16016 26.0098 4.99658 25.6174 5.58668 24.991C6.17678 25.6174 7.01314 26.0098 7.94004 26.0098C8.86693 26.0098 9.7033 25.6174 10.2934 24.991C10.6883 25.4102 11.1934 25.7239 11.7623 25.8859V29.1C11.7623 29.5855 12.1559 29.979 12.6413 29.979H17.3564C17.8419 29.979 18.2354 29.5854 18.2354 29.1V25.8866C18.8053 25.7248 19.3113 25.4107 19.7067 24.991C20.2968 25.6174 21.1332 26.0098 22.06 26.0098C22.9868 26.0098 23.8233 25.6174 24.4134 24.991C25.0035 25.6174 25.8399 26.0098 26.7667 26.0098C28.5496 26.0098 30.0001 24.5603 30.0001 22.7786L30 14.4075ZM14.0254 1.86224C14.1906 1.70357 14.3383 1.80312 14.4485 1.90777C14.7936 2.23549 15.3368 2.22898 15.6741 1.89318C15.8144 1.75343 15.955 1.74617 16.0916 1.87121C16.2554 2.02121 16.1823 2.16974 16.0898 2.28629L15.0538 3.36916L14.0106 2.27879C13.8572 2.09416 13.9332 1.95072 14.0254 1.86224ZM14.9988 5.38759C15.0016 5.38759 15.0045 5.38771 15.0074 5.38771C15.0229 5.38836 15.0382 5.39011 15.0537 5.39011C15.0635 5.39011 15.0732 5.38882 15.083 5.38859C18.528 5.41871 21.4394 7.29037 22.8521 10.0643H7.14533C8.56969 7.26769 11.5169 5.38759 14.9988 5.38759ZM6.48686 11.8222H23.5107C23.6483 12.3704 23.7332 12.9408 23.7595 13.5286H6.23818C6.26432 12.9407 6.34928 12.3704 6.48686 11.8222ZM28.242 15.2864V17.0436H1.75799V15.2864H28.242ZM13.5202 28.221V25.889C14.0935 25.7279 14.6026 25.4128 14.9999 24.991C15.3968 25.4122 15.905 25.727 16.4773 25.8883V28.2209H13.5202V28.221ZM26.7667 24.2517C25.9668 24.2517 25.314 23.6127 25.2923 22.8191C25.2925 22.8056 25.2934 22.7922 25.2934 22.7786V21.1887C25.2934 20.7032 24.8998 20.3097 24.4144 20.3097C24.4141 20.3097 24.4137 20.3098 24.4134 20.3098C24.413 20.3098 24.4127 20.3097 24.4123 20.3097C23.9269 20.3097 23.5334 20.7033 23.5334 21.1887V22.7786C23.5334 22.7922 23.5342 22.8055 23.5344 22.8191C23.5128 23.6127 22.8599 24.2517 22.0601 24.2517C21.2602 24.2517 20.6074 23.6127 20.5857 22.8191C20.5859 22.8056 20.5868 22.7922 20.5868 22.7786V21.1887C20.5868 20.7032 20.1932 20.3097 19.7078 20.3097C19.7075 20.3097 19.7071 20.3098 19.7068 20.3098C19.7064 20.3098 19.7061 20.3097 19.7057 20.3097C19.2203 20.3097 18.8268 20.7033 18.8268 21.1887V22.7786C18.8268 22.7922 18.8276 22.8055 18.8278 22.8191C18.8062 23.6127 18.1533 24.2517 17.3535 24.2517C16.5536 24.2517 15.9008 23.6127 15.8791 22.8191C15.8793 22.8056 15.8802 22.7922 15.8802 22.7786V21.1887C15.8802 20.7032 15.4866 20.3097 15.0012 20.3097C15.0009 20.3097 15.0005 20.3098 15.0002 20.3098C14.9998 20.3098 14.9995 20.3097 14.9991 20.3097C14.5137 20.3097 14.1202 20.7033 14.1202 21.1887V22.7786C14.1202 22.7922 14.121 22.8055 14.1212 22.8191C14.0996 23.6127 13.4467 24.2517 12.6469 24.2517C11.8468 24.2517 11.1939 23.6124 11.1725 22.8185C11.1727 22.8052 11.1735 22.792 11.1735 22.7786V21.1887C11.1735 20.7032 10.78 20.3097 10.2946 20.3097C10.2942 20.3097 10.2939 20.3098 10.2936 20.3098C10.2932 20.3098 10.2929 20.3097 10.2926 20.3097C9.80713 20.3097 9.41361 20.7033 9.41361 21.1887V22.7786C9.41361 22.792 9.41449 22.8052 9.41461 22.8185C9.39328 23.6124 8.74037 24.2517 7.94027 24.2517C7.14041 24.2517 6.48756 23.6127 6.46594 22.8191C6.46611 22.8056 6.46699 22.7922 6.46699 22.7786V21.1887C6.46699 20.7032 6.07342 20.3097 5.58803 20.3097C5.58768 20.3097 5.58732 20.3098 5.58697 20.3098C5.58662 20.3098 5.58627 20.3097 5.58592 20.3097C5.10047 20.3097 4.70695 20.7033 4.70695 21.1887V22.7786C4.70695 22.7922 4.70783 22.8055 4.70801 22.8191C4.68639 23.6127 4.03359 24.2517 3.23367 24.2517C2.42016 24.2517 1.75834 23.5909 1.75834 22.7786V18.8016H28.2424V22.7786C28.242 23.5909 27.5802 24.2517 26.7667 24.2517Z" fill="#999999"/>
</g>
<defs>
<clipPath id="clip0">
<rect width="30" height="30" fill="white"/>
</clipPath>
</defs>
</svg>
