<svg width="30" height="30" viewBox="0 0 30 30" fill="none" xmlns="http://www.w3.org/2000/svg">
<path fill-rule="evenodd" clip-rule="evenodd" d="M25.4143 1.88622H27.0679C28.6846 1.88622 30 3.17139 30 4.75113V27.1353C30 28.7148 28.6848 30 27.0679 30H2.93206C1.3154 30 0 28.7148 0 27.1353V4.75113C0 3.17139 1.3154 1.88622 2.93206 1.88622H4.58598V0.885773C4.58598 0.396652 4.99196 0 5.49258 0C5.99344 0 6.39942 0.396652 6.39942 0.885773V1.88622H8.18101V0.885773C8.18101 0.396652 8.58699 0 9.08762 0C9.58847 0 9.99446 0.396652 9.99446 0.885773V1.88622H20.006V0.885773C20.006 0.396652 20.412 0 20.9126 0C21.4135 0 21.8195 0.396652 21.8195 0.885773V1.88622H23.601V0.885773C23.601 0.396652 24.007 0 24.5077 0C25.0083 0 25.4143 0.396652 25.4143 0.885773V1.88622ZM27.0679 28.2285C27.6848 28.2285 28.1866 27.738 28.1866 27.1353V9.25186H1.81321V27.1353C1.81321 27.738 2.31524 28.2285 2.93206 28.2285H27.0679ZM2.93206 3.65799C2.31524 3.65799 1.81321 4.14825 1.81321 4.75113V7.48009H28.1868V4.75113C28.1868 4.14825 27.6848 3.65799 27.0679 3.65799H25.4145V4.65843C25.4145 5.14755 25.0085 5.5442 24.5077 5.5442C24.007 5.5442 23.601 5.14755 23.601 4.65843V3.65799H21.8195V4.65843C21.8195 5.14755 21.4135 5.5442 20.9129 5.5442C20.412 5.5442 20.006 5.14755 20.006 4.65843V3.65799H9.99446V4.65843C9.99446 5.14755 9.58847 5.5442 9.08785 5.5442C8.58699 5.5442 8.18101 5.14755 8.18101 4.65843V3.65799H6.39942V4.65843C6.39942 5.14755 5.99344 5.5442 5.49282 5.5442C4.99196 5.5442 4.58598 5.14755 4.58598 4.65843V3.65799H2.93206ZM15.0009 25.7721C18.9696 25.7721 22.1982 22.6174 22.1982 18.7399C22.1982 14.8624 18.9696 11.708 15.0009 11.708C11.032 11.708 7.80334 14.8624 7.80334 18.7399C7.80334 22.6174 11.0322 25.7721 15.0009 25.7721ZM15.0009 13.4795C17.9697 13.4795 20.385 15.8393 20.385 18.7399C20.385 21.6405 17.9697 24.0005 15.0009 24.0005C12.0321 24.0005 9.61656 21.6405 9.61656 18.7399C9.61656 15.8393 12.0321 13.4795 15.0009 13.4795ZM13.6528 20.9477C13.8228 21.1137 14.0533 21.2071 14.2939 21.2071C14.5343 21.2071 14.7648 21.1139 14.9349 20.9477L18.1717 17.7853C18.5259 17.4392 18.5259 16.8784 18.1717 16.5324C17.8178 16.1865 17.2436 16.1865 16.8896 16.5324L14.2939 19.0684L13.1104 17.9121C12.7562 17.5662 12.1823 17.5662 11.8281 17.9121C11.4741 18.2579 11.4741 18.8189 11.8281 19.165L13.6528 20.9477Z" fill="#999999"/>
</svg>
