<svg width="30" height="30" viewBox="0 0 30 30" fill="none" xmlns="http://www.w3.org/2000/svg">
<g clip-path="url(#clip0)">
<path fill-rule="evenodd" clip-rule="evenodd" d="M24.745 8.3941L24.739 8.37487C24.7369 8.36859 24.7348 8.36236 24.7325 8.35613C24.2328 6.93271 22.9717 5.83449 21.5354 5.5049C21.1905 3.26239 19.6137 1.25092 17.4714 0.429789C15.8011 -0.224646 13.9471 -0.129138 12.2503 0.698735C10.3658 1.61842 8.88958 3.34606 8.31137 5.28839L8.28969 5.35413C8.28535 5.36796 8.28021 5.38335 8.27489 5.39925L8.26971 5.41478C8.22026 5.43037 8.17215 5.4463 8.12674 5.46324C6.56035 5.96832 5.38291 7.3284 5.12275 8.93199C4.85715 10.5241 5.60105 12.2863 6.93131 13.2175C7.3664 13.5222 7.85963 13.7383 8.37686 13.8637L14.0804 29.3357C14.2278 29.7351 14.6085 30.0003 15.0339 30.0003C15.0342 30.0003 15.0344 30.0003 15.0346 30.0002C15.0348 30.0002 15.035 30.0001 15.0353 30C15.4611 29.9996 15.8415 29.7334 15.9882 29.3333L21.6655 13.8438C22.1697 13.7264 22.6547 13.521 23.0894 13.2269C24.5967 12.2077 25.2931 10.1749 24.745 8.3941ZM15.0312 26.0383L10.5437 13.8653C10.8917 13.781 11.2297 13.6548 11.5474 13.4861C11.5582 13.4803 11.5691 13.4745 11.5799 13.4682C11.828 13.3248 12.0468 13.168 12.2581 13.0165L12.2594 13.0156L12.2623 13.0135C12.6056 12.7678 12.9018 12.5558 13.1686 12.5071C13.4305 12.4641 13.7492 12.5315 14.1178 12.6098C14.2868 12.6457 14.4572 12.6816 14.63 12.7104C14.6435 12.7124 14.6574 12.7144 14.671 12.7161C15.336 12.7998 16.008 12.7578 16.6699 12.5921C16.76 12.5694 16.8477 12.544 16.9335 12.5186C17.0185 12.4932 17.1126 12.4654 17.1699 12.4562C17.2895 12.4895 17.5127 12.6795 17.679 12.821C17.7874 12.9135 17.8951 13.005 17.9991 13.0846C18.446 13.4337 18.9633 13.6792 19.5098 13.8201L15.0312 26.0383ZM21.951 11.5435C21.1628 12.0767 19.9768 12.0499 19.2445 11.4781C19.1633 11.4157 19.0834 11.3476 19.003 11.279L19.0029 11.2789L18.9965 11.2735L18.9953 11.2725C18.5964 10.9331 18.0503 10.4686 17.2618 10.4225C16.9179 10.4034 16.621 10.4914 16.3879 10.5605L16.3573 10.5695L16.326 10.5788C16.2772 10.5932 16.2278 10.6078 16.1768 10.6203C15.7608 10.7243 15.3573 10.7517 14.9437 10.7019C14.8192 10.6805 14.6962 10.6544 14.5737 10.6285L14.5736 10.6285L14.5413 10.6217C14.0423 10.5156 13.4773 10.3957 12.8201 10.5048C12.0891 10.6375 11.5509 11.023 11.0762 11.3632L11.0617 11.3736C10.8926 11.4944 10.7324 11.609 10.5783 11.6996C9.82186 12.0925 8.78159 12.0322 8.09698 11.5529C7.39643 11.0624 6.98862 10.101 7.12848 9.26229C7.26705 8.40863 7.92553 7.65728 8.76735 7.39273C8.78669 7.38664 8.8195 7.37445 8.83848 7.3673C8.85729 7.36036 8.87738 7.35433 8.89795 7.34816L8.92081 7.34123L8.9227 7.34064L8.92271 7.34064C9.12009 7.27993 9.44909 7.17874 9.72366 6.90424C10.0163 6.61092 10.1346 6.25167 10.221 5.9892L10.2213 5.98824L10.2498 5.90017C10.6783 4.46152 11.7596 3.20005 13.142 2.52522C13.81 2.19903 14.5088 2.03473 15.1964 2.03473C15.7225 2.03473 16.2422 2.13094 16.7364 2.32436C18.3803 2.95442 19.5731 4.67796 19.5731 6.42289C19.5731 6.98422 20.028 7.43914 20.5893 7.43914H20.7641C21.6435 7.49504 22.4971 8.15117 22.8081 9.01057C23.0794 9.92422 22.7058 11.0333 21.951 11.5435ZM12.5656 4.67158C13.3345 4.07609 14.2861 3.82302 15.2454 3.96089C15.8013 4.04017 16.187 4.55503 16.1078 5.11056C16.0286 5.66609 15.5129 6.05123 14.9578 5.97265C14.5485 5.91371 14.14 6.02246 13.8097 6.27822C13.474 6.53808 13.2555 6.91748 13.1942 7.34598C13.1217 7.85305 12.6871 8.21926 12.1895 8.21926C12.1414 8.21926 12.0933 8.21586 12.0445 8.20877C11.489 8.12949 11.1028 7.61457 11.1824 7.05904C11.3186 6.10449 11.8102 5.25658 12.5656 4.67158Z" fill="#999999"/>
</g>
<defs>
<clipPath id="clip0">
<rect width="30" height="30" fill="white"/>
</clipPath>
</defs>
</svg>
