<svg width="30" height="30" viewBox="0 0 30 30" fill="none" xmlns="http://www.w3.org/2000/svg">
<path fill-rule="evenodd" clip-rule="evenodd" d="M13.2481 26.3672V28.2481H4.44717V25.5528C4.44717 24.2695 5.38467 23.1915 6.60347 22.9628C7.15439 23.877 7.89848 24.668 8.77144 25.2715C9.879 26.0332 11.1211 26.4375 12.3692 26.4375C12.6622 26.4375 12.9552 26.4141 13.2481 26.3672ZM29.0742 30V22.0372C29.0742 18.6035 26.8712 15.6679 23.8007 14.5782V11.4903C23.8007 5.15625 18.6738 0 12.3692 0C6.06445 0 0.9375 5.15625 0.9375 11.4903V18.5216C0.9375 20.4259 1.81641 22.207 3.2872 23.3613C2.91206 24.0058 2.69531 24.7559 2.69531 25.5585V30H29.0742ZM27.3164 22.0429V28.2539H22.0429V26.3496C24.0468 25.9394 25.5585 24.164 25.5585 22.0429C25.5585 19.6172 23.584 17.6484 21.164 17.6484C18.744 17.6484 16.7695 19.6172 16.7695 22.0429C16.7695 24.164 18.2812 25.9394 20.2851 26.3496V28.2539H15.0117V22.0429C15.0117 18.6504 17.7715 15.8906 21.164 15.8906C24.5567 15.8906 27.3164 18.6504 27.3164 22.0429ZM22.0429 19.5527C23.0683 19.9102 23.8007 20.8887 23.8007 22.0372C23.8007 23.4961 22.6172 24.6796 21.164 24.6739C19.7108 24.6739 18.5273 23.4901 18.5273 22.0372C18.5273 20.8946 19.2597 19.9159 20.2851 19.5527V21.1583H22.0429V19.5527ZM22.0372 11.4903V14.1737C21.75 14.1444 21.457 14.127 21.1523 14.127C20.836 14.127 20.5195 14.1444 20.2148 14.1797C20.2558 13.875 20.2734 13.5645 20.2734 13.2481V10.6114H19.3945C16.002 10.6114 13.2422 7.85156 13.2422 4.45908H11.4844C11.4844 7.85156 8.72452 10.6114 5.33203 10.6114H4.45312V13.2481C4.45312 16.6113 6.58585 19.5763 9.72656 20.6836V21.164H7.08984C6.0997 21.164 5.1915 21.4922 4.45312 22.0429C3.35747 21.2169 2.68364 19.9159 2.68364 18.5216V11.4903C2.68364 6.12305 7.0372 1.75781 12.3692 1.75781C17.7013 1.75781 22.0372 6.12305 22.0372 11.4903ZM18.5216 12.3223V13.2481C18.5216 13.7169 18.4687 14.1856 18.3691 14.6425C14.9121 15.9492 13.2539 18.8965 13.2539 21.5742V24.586C12.9609 24.6446 12.6679 24.6796 12.375 24.6796C11.0566 24.6796 9.72656 24.0001 8.75381 22.9102H11.4844V19.3536L10.8339 19.1835C8.11523 18.4804 6.20499 16.0371 6.20499 13.2481V12.3223C8.88863 12.0234 11.1797 10.377 12.3692 8.07999C13.5585 10.377 15.8379 12.0234 18.5216 12.3223ZM15.0057 15.0061H13.2479C13.2479 15.4922 12.8551 15.885 12.369 15.885C11.8826 15.885 11.4901 15.4922 11.4901 15.0061H9.73226C9.73226 16.459 10.9158 17.6428 12.369 17.6428C13.8219 17.6428 15.0057 16.459 15.0057 15.0061Z" fill="#999999"/>
</svg>
