<svg width="30" height="30" viewBox="0 0 30 30" fill="none" xmlns="http://www.w3.org/2000/svg">
<path d="M26.4844 0H3.51562C1.57711 0 0 1.57711 0 3.51562V26.4844C0 28.4229 1.57711 30 3.51562 30H26.4844C28.4229 30 30 28.4229 30 26.4844V3.51562C30 1.57711 28.4229 0 26.4844 0ZM27.6562 26.4844C27.6562 27.1305 27.1305 27.6562 26.4844 27.6562H3.51562C2.86945 27.6562 2.34375 27.1305 2.34375 26.4844V3.51562C2.34375 2.86945 2.86945 2.34375 3.51562 2.34375H26.4844C27.1305 2.34375 27.6562 2.86945 27.6562 3.51562V26.4844Z" fill="#999999"/>
<path d="M16.7578 5.85938H8.55469V24.1406H10.8984V17.5781H16.7578C19.9887 17.5781 22.6172 14.9496 22.6172 11.7188C22.6172 8.48789 19.9887 5.85938 16.7578 5.85938ZM16.7578 15.2344H10.8984V8.20312H16.7578C18.6963 8.20312 20.2734 9.78023 20.2734 11.7188C20.2734 13.6573 18.6963 15.2344 16.7578 15.2344Z" fill="#999999"/>
</svg>
