<svg width="30" height="30" viewBox="0 0 30 30" fill="none" xmlns="http://www.w3.org/2000/svg">
<g clip-path="url(#clip0)">
<path fill-rule="evenodd" clip-rule="evenodd" d="M26.2662 22.3051C27.6086 21.7332 29.22 22.3682 29.7872 23.6907C30.3594 25.0268 29.7378 26.5797 28.4014 27.1528C24.2991 28.91 20.051 29.998 15 29.998C9.98542 29.998 5.7567 28.9302 1.59959 27.1533C0.262357 26.5798 -0.359382 25.0268 0.212728 23.6911C0.76146 22.4074 2.21635 21.7832 3.51578 22.2434V20.3319C2.78078 20.8849 1.86759 21.2132 0.879058 21.2132C0.393666 21.2132 0.000149873 20.8197 0.000149873 20.3343V13.1859C0.000149873 10.4728 2.42711 8.41224 5.12617 8.85099C6.32307 9.04576 7.39634 9.7609 8.07374 10.7796C8.60683 10.6277 9.16171 10.5493 9.72667 10.5493H15.0001C15.4847 10.5493 15.879 10.1551 15.879 9.67043V7.91261C15.879 3.55094 19.4275 0.0025 23.7891 0.00244141C25.243 0.00244141 26.4258 1.18528 26.4258 2.63917V4.06475C26.514 4.1329 26.599 4.20638 26.6793 4.28636L29.2205 6.76904C29.7187 7.2614 30 7.92884 30 8.64064V9.67037C30 11.1243 28.8172 12.3071 27.3633 12.3071H24.668V22.9633C25.2394 22.7467 25.5978 22.5925 26.0765 22.3866C26.1376 22.3604 26.2006 22.3333 26.2662 22.3051ZM17.6367 7.91255V9.67037C17.6367 9.97852 17.5831 10.2742 17.4856 10.5493H18.5156C19.0003 10.5493 19.3945 10.155 19.3945 9.67037V7.91255C19.3945 5.48946 21.3659 3.51807 23.789 3.51807H24.6679V2.63917C24.6679 2.15454 24.2737 1.76026 23.789 1.76026C20.3967 1.76026 17.6367 4.52015 17.6367 7.91255ZM17.6367 12.3071H10.6055V15.061C10.6055 15.5456 10.9998 15.9399 11.4844 15.9399H16.7578C17.2424 15.9399 17.6367 15.5456 17.6367 15.061V12.3071ZM8.84771 15.061V12.3996C6.8377 12.8264 5.27354 14.677 5.27354 16.8188V22.9629C5.87565 23.1911 6.4845 23.3976 7.09891 23.5817C7.23813 21.2831 9.15146 19.4555 11.4844 19.4555H16.7579C19.181 19.4555 21.1524 21.4268 21.1524 23.85V24.0296C21.7425 23.8933 22.3288 23.737 22.9102 23.5612V11.4282C22.9102 10.9429 23.3037 10.5493 23.7891 10.5493H27.3633C27.8479 10.5493 28.2422 10.1551 28.2422 9.67043V8.6407C28.2422 8.40732 28.1519 8.18783 27.9877 8.02218L25.4475 5.54044L25.4403 5.53323C25.2743 5.36724 25.0535 5.27583 24.8188 5.27583H23.7891C22.3352 5.27583 21.1524 6.45867 21.1524 7.91255V9.67037C21.1524 10.8162 20.4175 11.7931 19.3945 12.1559V15.061C19.3945 16.5149 18.2117 17.6977 16.7578 17.6977H11.4844C10.0305 17.6977 8.84771 16.5149 8.84771 15.061ZM19.3945 24.3751V23.85C19.3945 22.3961 18.2117 21.2133 16.7579 21.2132H11.4845C10.0306 21.2132 8.84776 22.3961 8.84776 23.85V24.043C10.8688 24.5049 12.9345 24.7347 15.0001 24.7325C16.4703 24.7309 17.9405 24.6118 19.3945 24.3751ZM1.75791 19.3049C2.78101 18.9421 3.51572 17.9647 3.51572 16.8188C3.51572 15.1744 4.16442 13.6102 5.34233 12.4145C5.67977 12.072 6.04745 11.7735 6.43856 11.5214C6.03227 11.0282 5.46549 10.6871 4.84393 10.586C3.15695 10.3116 1.75791 11.6092 1.75791 13.186V19.3049ZM15.0001 28.2402C19.7746 28.2402 23.7844 27.2182 27.709 25.5372C28.1546 25.3461 28.3622 24.8283 28.1716 24.3832C27.9826 23.9424 27.4152 23.7263 26.9574 23.9213C23.1677 25.5481 19.4564 26.4852 15.0001 26.4896C10.5223 26.4939 6.80378 25.5576 2.98264 23.9206C2.53732 23.7303 2.01929 23.937 1.82886 24.3826C1.63797 24.8283 1.84562 25.3461 2.29152 25.5374C6.21772 27.2154 10.2098 28.2402 15.0001 28.2402ZM24.668 7.9126C24.668 8.398 24.2745 8.7915 23.7891 8.7915C23.3037 8.7915 22.9102 8.398 22.9102 7.9126C22.9102 7.42719 23.3037 7.03369 23.7891 7.03369C24.2745 7.03369 24.668 7.42719 24.668 7.9126Z" fill="#999999"/>
</g>
<defs>
<clipPath id="clip0">
<rect width="30" height="30" fill="white"/>
</clipPath>
</defs>
</svg>
