<svg width="30" height="30" viewBox="0 0 30 30" fill="none" xmlns="http://www.w3.org/2000/svg">
<g clip-path="url(#clip0)">
<path fill-rule="evenodd" clip-rule="evenodd" d="M28.687 9.2202C27.5314 7.72213 27.5314 5.19099 28.687 3.69298C29.0416 3.23337 28.9564 2.57337 28.4968 2.21887C28.0372 1.86426 27.3772 1.94964 27.0228 2.40907C25.2719 4.6787 25.2719 8.23447 27.0228 10.5041C28.1784 12.0022 28.1784 14.5333 27.0228 16.0313C26.6682 16.4909 26.7534 17.1509 27.213 17.5054C27.6723 17.8599 28.3325 17.7749 28.687 17.3152C30.4379 15.0456 30.4379 11.4898 28.687 9.2202ZM28.8662 19.5928H2.91903C1.30951 19.5928 0 20.9022 0 22.5118V24.4578C0 26.0674 1.30951 27.3768 2.91903 27.3768H28.8662C29.4035 27.3768 29.8392 26.9412 29.8392 26.4038V20.5657C29.8392 20.0284 29.4035 19.5928 28.8662 19.5928ZM9.73016 25.4309H2.91903C2.38249 25.4309 1.94602 24.9944 1.94602 24.4579V22.5119C1.94602 21.9753 2.38254 21.5388 2.91903 21.5388H9.73016V25.4309ZM24.001 25.4309H11.6762V21.5388H24.001V25.4309ZM27.8931 25.4309H25.9471V21.5388H27.8931V25.4309ZM24.7946 3.69298C23.6389 5.19105 23.6389 7.72213 24.7946 9.2202C26.5454 11.4898 26.5454 15.0456 24.7946 17.3152C24.44 17.7749 23.7799 17.8599 23.3205 17.5054C22.8609 17.1509 22.7758 16.4909 23.1303 16.0313C24.286 14.5333 24.286 12.0022 23.1303 10.5041C21.3795 8.23447 21.3795 4.6787 23.1303 2.40907C23.4848 1.94964 24.1448 1.86426 24.6044 2.21887C25.064 2.57337 25.1491 3.23337 24.7946 3.69298Z" fill="#999999"/>
</g>
<defs>
<clipPath id="clip0">
<rect width="30" height="30" fill="white"/>
</clipPath>
</defs>
</svg>
